# xmcd
#
# Track frame offsets:
#	150
#	18885
#	36547
#	49525
#	59752
#	75117
#	90973
#	108964
#	125888
#	144456
#	162225
#	178498
#	196708
#	211424
#	224015
#	234185
#
# Disc length: 3346 seconds
#
# Revision: 1
# Processed by: cddbd v1.5.1PL2 Copyright (c) Steve Scherf et al.
# Submitted via: audiograbber 1.83.01
#
DISCID=dc0d1010
DTITLE=Diverse Interpreten - Dream of Love 1
DYEAR=1900
DGENRE=
TTITLE0=American Dream
TTITLE1=All for Love
TTITLE2=Nostalgia
TTITLE3=Love Letter in the Sand
TTITLE4=Romance d amour
TTITLE5=Mexican Moon
TTITLE6=Shine one
TTITLE7=Angelika Milster und Steve Barton
TTITLE8=Bring Your Problems to me
TTITLE9=Together Were Strong
TTITLE10=Reach Out
TTITLE11=Unchained Love
TTITLE12=Touche d amour
TTITLE13=Sea Breeze
TTITLE14=Nulla rimpiangero
TTITLE15=Me ne andro
EXTD=Schallplatte
EXTT0=
EXTT1=
EXTT2=
EXTT3=
EXTT4=
EXTT5=
EXTT6=
EXTT7=
EXTT8=
EXTT9=
EXTT10=
EXTT11=
EXTT12=
EXTT13=
EXTT14=
EXTT15=
PLAYORDER=
